<!DOCTYPE svg PUBLIC "-//W3C//DTD SVG 1.1//EN" "http://www.w3.org/Graphics/SVG/1.1/DTD/svg11.dtd">
<!-- Uploaded to: SVG Repo, www.svgrepo.com, Transformed by: SVG Repo Mixer Tools -->
<svg fill="#c99d56" width="64px" height="64px" viewBox="0 0 512 512" xmlns="http://www.w3.org/2000/svg">
<g id="SVGRepo_bgCarrier" stroke-width="0"/>
<g id="SVGRepo_tracerCarrier" stroke-linecap="round" stroke-linejoin="round"/>
<g id="SVGRepo_iconCarrier">
<title>ionicons-v5-d</title>
<path d="M432,64H96A16,16,0,0,0,80,80V272a96.11,96.11,0,0,0,96,96H288a96.11,96.11,0,0,0,96-96V192h18a62.07,62.07,0,0,0,62-62V96A32,32,0,0,0,432,64Zm0,66a30,30,0,0,1-30,30H384V96h48Z"/>
<path d="M400,400H64a16,16,0,0,0,0,32H400a16,16,0,0,0,0-32Z"/>
</g>
</svg>