<!DOCTYPE svg PUBLIC "-//W3C//DTD SVG 1.1//EN" "http://www.w3.org/Graphics/SVG/1.1/DTD/svg11.dtd">
<!-- Uploaded to: SVG Repo, www.svgrepo.com, Transformed by: SVG Repo Mixer Tools -->
<svg fill="#5A4019" width="64px" height="64px" viewBox="0 0 24 24" xmlns="http://www.w3.org/2000/svg">
<g id="SVGRepo_bgCarrier" stroke-width="0"/>
<g id="SVGRepo_tracerCarrier" stroke-linecap="round" stroke-linejoin="round"/>
<g id="SVGRepo_iconCarrier">
<path d="M17,2a5.009,5.009,0,0,0-4.9,4H3a1,1,0,0,0-.707,1.707L9,14.414V20H6a1,1,0,0,0,0,2h8a1,1,0,0,0,0-2H11V14.414l3.243-3.243A5,5,0,1,0,17,2ZM13,8h1.586l-2.551,2.551c-2.005-.422-3.288-1.132-5.294-1.224L5.414,8Zm4,2a2.99,2.99,0,0,1-1.294-.292l2-2A1,1,0,0,0,17,6H14.171A3,3,0,1,1,17,10Z"/>
</g>
</svg>